<?xml version="1.0" encoding="utf-8"?>
<!-- Generator: Adobe Illustrator 17.0.0, SVG Export Plug-In . SVG Version: 6.00 Build 0)  -->
<!DOCTYPE svg PUBLIC "-//W3C//DTD SVG 1.1//EN" "http://www.w3.org/Graphics/SVG/1.1/DTD/svg11.dtd">
<svg version="1.1" id="Layer_1" xmlns="http://www.w3.org/2000/svg" xmlns:xlink="http://www.w3.org/1999/xlink" x="0px" y="0px"
	 width="490.598px" height="439.316px" viewBox="35.902 127.543 490.598 439.316"
	 enable-background="new 35.902 127.543 490.598 439.316" xml:space="preserve">
<path fill="#98A4C2" d="M204.888,380.388c0.895-0.775,1.818-1.527,2.776-2.25c24.691-18.637,60.86-12.345,80.785,14.053
	s16.061,62.906-8.631,81.542c-0.958,0.723-1.934,1.405-2.925,2.053l12.366,16.383c10.497-2.348,20.582-6.859,29.611-13.674
	c35.959-27.141,41.587-80.309,12.569-118.753s-81.691-47.607-117.65-20.466c-9.029,6.815-16.132,15.277-21.267,24.729
	L204.888,380.388z"/>
<path fill="#3B3F3F" d="M273.574,359.477c-11.597-26.252-15.87-49.003-12.701-67.622c2.563-15.064,9.321-22.014,10.083-22.757
	l11.878,12.185c0,0,0.055-0.048,0.152-0.152c-0.172,0.186-16.924,19.225,6.154,71.47L273.574,359.477z"/>
<path fill="#FBAB1A" d="M197.491,426.631c0,0-25.251-40.079-63.778-5.909C113.86,438.33,99.68,465.414,99.68,465.414
	s-6.567,11.56-22.073,8.723c0,0,34.127,17.204,47.599,0.448s31.747,34.437-25.526,40.677c-32.542,3.545-41.834,26.944-44.67,45.379
	c0,0,9.927-34.034,44.67-33.325s73.783,18.435,87.588-12.763c13.805-31.198,25.15,9.927,16.641,14.89c0,0,24.184-8.97,28.483-26.944
	c11.13-46.539-6.244-61.687-6.244-61.687S206.75,436.879,197.491,426.631z"/>
<path fill="#FEDA00" d="M196.782,440.812c0,0-25.056-4.254-32.363,9.927c-7.307,14.181-3.053,33.938-9.434,40.722
	s-16.308,16.711-16.308,16.711s38.673-4.963,45.926-20.562c7.253-15.599,10.798-16.197,24.27-13.416
	c13.472,2.781,16.566-26.999,16.566-30.544c0,0-18.062,1.968-28.656-0.709"/>
<path fill="#7F8182" d="M328.388,273.235l-0.065-17.726c0.204-0.002,20.499-0.319,31.577-12.597c5.8-6.429,8.2-15.426,7.133-26.742
	l17.647-1.664c1.558,16.524-2.385,30.114-11.721,40.392C356.546,272.97,329.531,273.233,328.388,273.235z"/>
<path fill="#656869" d="M384.68,214.507l-17.647,1.664c0.019,0.204,0.029,0.401,0.046,0.603c2.906,4.773,4.581,10.378,4.581,16.375
	c0,17.412-14.115,31.528-31.528,31.528c-4.168,0-8.143-0.816-11.784-2.285l0.04,10.845c1.143-0.002,28.158-0.266,44.571-18.337
	C382.295,244.62,386.238,231.03,384.68,214.507z"/>
<path fill="#8B9091" d="M382.557,178.542l-4.449,10.233c2.344,1.389,4.201,3.617,5.048,6.433c1.793,5.958-1.583,12.242-7.541,14.035
	c-5.958,1.793-12.242-1.583-14.035-7.541c-0.754-2.505-0.585-5.064,0.297-7.326l-10.198-4.434
	c-1.892,4.591-2.278,9.836-0.736,14.961c3.561,11.833,16.041,18.538,27.874,14.977c11.833-3.561,18.538-16.041,14.977-27.874
	C391.965,185.935,387.788,181.219,382.557,178.542z"/>
<rect x="327.934" y="262.455" transform="matrix(-0.0979 -0.9952 0.9952 -0.0979 107.7307 623.9811)" fill="#293133" width="17.473" height="1.418"/>
<rect x="336.355" y="260.601" transform="matrix(-0.3716 -0.9284 0.9284 -0.3716 230.7279 678.7931)" fill="#293133" width="17.473" height="1.418"/>
<rect x="344.965" y="256.806" transform="matrix(-0.5289 -0.8487 0.8487 -0.5289 322.2225 693.8956)" fill="#293133" width="17.473" height="1.418"/>
<rect x="351.917" y="252.377" transform="matrix(-0.6426 -0.7662 0.7662 -0.6426 398.4947 692.0524)" fill="#293133" width="17.473" height="1.418"/>
<rect x="358.783" y="246.303" transform="matrix(-0.8498 -0.5271 0.5271 -0.8498 549.6379 650.6433)" fill="#293133" width="17.473" height="1.418"/>
<rect x="363.539" y="238.658" transform="matrix(-0.9424 -0.3346 0.3346 -0.9424 642.9926 589.5046)" fill="#293133" width="17.472" height="1.418"/>
<rect x="366.308" y="228.048" transform="matrix(-1 0.0034 -0.0034 -1 750.8643 456.2371)" fill="#293133" width="17.473" height="1.418"/>
<g>
	<circle fill="#EE4E32" cx="242.911" cy="238.45" r="16.759"/>
	<path fill="none" stroke="#EF7255" stroke-width="10" stroke-miterlimit="10" d="M334.837,203.628
		c-2.293-5.983-9.003-8.975-14.986-6.682c-1.73,0.663-3.21,1.695-4.384,2.972"/>
	<path fill="none" stroke="#EF7255" stroke-width="10" stroke-miterlimit="10" d="M334.644,203.112
		c-2.293-5.983-9.003-8.975-14.986-6.682c-1.73,0.663-3.21,1.695-4.384,2.972"/>
	<circle fill="#EE4E32" cx="324.417" cy="207.969" r="16.759"/>
	
		<rect x="268.594" y="224.336" transform="matrix(-0.9366 0.3503 -0.3503 -0.9366 677.7966 419.2074)" fill="#8B9091" width="64.779" height="93.14"/>
	
		<rect x="269.639" y="230.11" transform="matrix(-0.9366 0.3503 -0.3503 -0.9366 649.9202 435.7978)" fill="#7C8083" width="31.811" height="93.14"/>
	<path fill="#EF7255" d="M328.656,199.323c-1.427-0.668-2.955-0.981-4.542-0.931c-1.56,0.049-3.042,0.445-4.405,1.177l-1.524-2.84
		c1.807-0.969,3.767-1.493,5.828-1.558c2.098-0.066,4.12,0.349,6.009,1.234L328.656,199.323z"/>
	<path fill="#EF7255" d="M333.671,205.11c-0.443-1.155-1.083-2.202-1.902-3.112l2.395-2.157c1.085,1.205,1.932,2.589,2.517,4.116
		L333.671,205.11z"/>
	
		<rect x="258.603" y="226.144" transform="matrix(-0.9366 0.3503 -0.3503 -0.9366 649.0889 370.9713)" fill="#73797B" width="64.779" height="36.096"/>
	
		<rect x="259.648" y="231.918" transform="matrix(-0.9366 0.3503 -0.3503 -0.9366 621.2124 387.5616)" fill="#696F70" width="31.811" height="36.096"/>
	<path fill="#8B9091" d="M334.339,229.52c1.593,4.259-0.569,9.003-4.828,10.596l-71.338,26.678
		c-4.259,1.593-9.003-0.569-10.596-4.828l-14.661-39.204c-1.593-4.259,0.569-9.003,4.828-10.596l71.338-26.678
		c4.259-1.593,9.003,0.569,10.596,4.828L334.339,229.52z"/>
	<path fill="#7F8486" d="M273.412,198.828l-35.669,13.339c-4.259,1.593-6.421,6.337-4.828,10.596l14.661,39.204
		c1.593,4.259,6.337,6.421,10.596,4.828l35.669-13.339L273.412,198.828z"/>
	<circle fill="#6D7375" cx="265.174" cy="230.813" r="15.47"/>
	<circle fill="#28AAAA" cx="265.174" cy="230.813" r="11.603"/>
	<circle fill="#EE4E32" cx="279.737" cy="269.754" r="4.834"/>
	<circle fill="#CD382E" cx="279.737" cy="269.754" r="3.223"/>
	<circle fill="#EE4E32" cx="277.314" cy="278.919" r="3.223"/>
	<circle fill="#EE4E32" cx="287.087" cy="275.608" r="3.868"/>
	<circle fill="#73797B" cx="301.398" cy="217.266" r="17.404"/>
	<circle fill="#28AAAA" cx="301.398" cy="217.266" r="13.053"/>
	<circle fill="#51C4C7" cx="294.304" cy="219.919" r="2.739"/>
	<circle fill="#51C4C7" cx="272.268" cy="228.16" r="2.739"/>
	
		<rect x="302.491" y="253.358" transform="matrix(-0.9366 0.3503 -0.3503 -0.9366 695.1614 384.5154)" fill="#28AAAA" width="20.626" height="3.545"/>
	
		<rect x="304.184" y="257.886" transform="matrix(-0.9366 0.3503 -0.3503 -0.9366 700.0278 392.6904)" fill="#28AAAA" width="20.626" height="3.545"/>
	<polygon fill="#757C7E" points="272.505,199.167 270.777,194.547 271.524,193.721 262.586,193.546 271.001,187.947 
		260.915,187.432 268.523,181.284 264.835,181.418 261.744,173.152 263.737,172.407 266.29,179.236 274.824,178.928 
		266.578,185.591 277.54,186.151 269.423,191.552 276.225,191.685 273.223,195.013 274.497,198.422 	"/>
	<circle fill="#757C7E" cx="262.74" cy="172.78" r="3.223"/>
</g>
<g>
	<path fill="#D64A31" d="M380.275,214.634c0,2.628-2.13,4.758-4.758,4.758h-0.793c-2.628,0-4.758-2.13-4.758-4.758v-24.899
		c0-2.628,2.13-4.758,4.758-4.758h0.793c2.628,0,4.758,2.13,4.758,4.758V214.634z"/>
	<path fill="#B93B2B" d="M375.148,184.977h-0.423c-2.628,0-4.758,2.13-4.758,4.758v24.899c0,2.628,2.13,4.758,4.758,4.758h0.423
		V184.977z"/>
	<path fill="#A31E23" d="M376.798,214.705c0,0.911-0.739,1.65-1.65,1.65l0,0c-0.911,0-1.65-0.739-1.65-1.65v-24.659
		c0-0.911,0.739-1.65,1.65-1.65l0,0c0.911,0,1.65,0.739,1.65,1.65V214.705z"/>
	<path fill="#A31E23" d="M372.397,214.705c0,0.911-0.369,1.65-0.825,1.65l0,0c-0.456,0-0.825-0.739-0.825-1.65v-24.659
		c0-0.911,0.369-1.65,0.825-1.65l0,0c0.456,0,0.825,0.739,0.825,1.65V214.705z"/>
	<path fill="#A31E23" d="M379.364,214.705c0,0.911-0.369,1.65-0.825,1.65l0,0c-0.456,0-0.825-0.739-0.825-1.65v-24.659
		c0-0.911,0.369-1.65,0.825-1.65l0,0c0.456,0,0.825,0.739,0.825,1.65V214.705z"/>
	<rect x="369.967" y="182.786" fill="#D64A31" width="10.308" height="3.19"/>
	<rect x="369.967" y="182.786" fill="#A31E23" width="3.531" height="3.19"/>
	<rect x="373.267" y="182.786" fill="#B93B2B" width="3.531" height="3.19"/>
	<rect x="373.497" y="149.895" fill="#BECCD5" width="3.3" height="32.891"/>
	<rect x="373.497" y="149.895" fill="#89949B" width="1.65" height="32.891"/>
	<polygon fill="#BECCD5" points="373.46,149.895 371.772,145.271 373.46,136.613 376.835,136.613 378.523,145.271 376.835,149.895 
		375.239,151.911 	"/>
</g>
<path fill="#6F8DB8" d="M423.215,367.757c-68.918,52.019-156.81,82.364-178.16,54.077s31.926-104.492,100.845-156.51
	s158.533-49.48,163.446-42.971C514.058,232.176,492.134,315.739,423.215,367.757z"/>
<path fill="#536A91" d="M377.399,384.712c-50.471,38.095-115.675,59.208-132.344,37.123s21.509-79.003,71.98-117.098
	s117.733-34.071,121.569-28.99C442.366,283.354,427.871,346.617,377.399,384.712z"/>
<polygon fill="#3D506C" points="222.87,465.414 197.491,431.789 245.128,376.03 289.552,434.887 "/>
<circle fill="#98A4C2" cx="396.6" cy="310.56" r="46.185"/>
<circle fill="#273C91" cx="396.6" cy="310.56" r="38.74"/>
<circle fill="#ABCAE4" cx="414.87" cy="302.989" r="8.96"/>
<circle fill="#ABCAE4" cx="395.523" cy="300.285" r="4.144"/>
<path fill="#485359" d="M495.152,276.519c12.513-27.373,16.475-49.41,14.193-54.166c-2.403-3.183-25.071-5.412-55.665-0.778
	L495.152,276.519z"/>
<path fill="#A6BAC5" d="M509.345,222.352c0,0-29.073-1.598-46.95,7.454l6.728,8.913C469.123,238.72,482.062,227.399,509.345,222.352
	z"/>
</svg>
